HIERARCHY
ROOT Hips
{
	OFFSET -14.64140 90.27770 -84.91600
	CHANNELS 6 Xposition Yposition Zposition Zrotation Xrotation Yrotation
	JOINT Spine
	{
		OFFSET 0.00000 13.20850 -1.60436
		CHANNELS 3 Zrotation Xrotation Yrotation
		JOINT Spine1
		{
			OFFSET 0.00000 8.61716 0.00000
			CHANNELS 3 Zrotation Xrotation Yrotation
			JOINT Spine2
			{
				OFFSET 0.00000 8.61717 0.00000
				CHANNELS 3 Zrotation Xrotation Yrotation
				JOINT Spine3
				{
					OFFSET 0.00000 8.61717 0.00000
					CHANNELS 3 Zrotation Xrotation Yrotation
					JOINT Neck
					{
						OFFSET 0.00000 11.07920 1.10792
						CHANNELS 3 Zrotation Xrotation Yrotation
						JOINT Neck1
						{
							OFFSET 0.00000 7.08032 0.00000
							CHANNELS 3 Zrotation Xrotation Yrotation
							JOINT Head
							{
								OFFSET 0.00000 7.08031 0.00000
								CHANNELS 3 Zrotation Xrotation Yrotation
								End site
								{
									OFFSET 0.00000 0.00000 0.00000
								}
							}
						}
					}
					JOINT RightShoulder
					{
						OFFSET -0.01000 7.91373 5.19711
						CHANNELS 3 Zrotation Xrotation Yrotation
						JOINT RightArm
						{
							OFFSET -18.41580 0.00000 0.00000
							CHANNELS 3 Zrotation Xrotation Yrotation
							JOINT RightForeArm
							{
								OFFSET -29.11090 0.00000 0.00000
								CHANNELS 3 Zrotation Xrotation Yrotation
								JOINT RightHand
								{
									OFFSET -24.65040 0.00000 0.00000
									CHANNELS 3 Zrotation Xrotation Yrotation
									JOINT RightHandThumb1
									{
										OFFSET -5.35114 -0.85590 3.97906
										CHANNELS 3 Zrotation Xrotation Yrotation
										JOINT RightHandThumb2
										{
											OFFSET -4.52789 0.00000 0.00000
											CHANNELS 3 Zrotation Xrotation Yrotation
											JOINT RightHandThumb3
											{
												OFFSET -2.46976 0.00000 0.00000
												CHANNELS 3 Zrotation Xrotation Yrotation
												End site
												{
													OFFSET 0.00000 0.00000 0.00000
												}
											}
										}
									}
									JOINT RightHandIndex1
									{
										OFFSET -14.26970 0.00000 2.88139
										CHANNELS 3 Zrotation Xrotation Yrotation
										JOINT RightHandIndex2
										{
											OFFSET -5.48836 0.00000 0.00000
											CHANNELS 3 Zrotation Xrotation Yrotation
											JOINT RightHandIndex3
											{
												OFFSET -3.01859 0.00000 0.00000
												CHANNELS 3 Zrotation Xrotation Yrotation
												End site
												{
													OFFSET 0.00000 0.00000 0.00000
												}
											}
										}
									}
									JOINT RightHandMiddle1
									{
										OFFSET -14.26970 0.00000 -0.09147
										CHANNELS 3 Zrotation Xrotation Yrotation
										JOINT RightHandMiddle2
										{
											OFFSET -6.17441 0.00000 0.00000
											CHANNELS 3 Zrotation Xrotation Yrotation
											JOINT RightHandMiddle3
											{
												OFFSET -3.56743 0.00000 0.00000
												CHANNELS 3 Zrotation Xrotation Yrotation
												End site
												{
													OFFSET 0.00000 0.00000 0.00000
												}
											}
										}
									}
									JOINT RightHandRing1
									{
										OFFSET -12.69180 0.00000 -3.06433
										CHANNELS 3 Zrotation Xrotation Yrotation
										JOINT RightHandRing2
										{
											OFFSET -5.62556 0.00000 0.00000
											CHANNELS 3 Zrotation Xrotation Yrotation
											JOINT RightHandRing3
											{
												OFFSET -3.56744 0.00000 0.00000
												CHANNELS 3 Zrotation Xrotation Yrotation
												End site
												{
													OFFSET 0.00000 0.00000 0.00000
												}
											}
										}
									}
									JOINT RightHandPinky1
									{
										OFFSET -11.11390 0.00000 -6.03719
										CHANNELS 3 Zrotation Xrotation Yrotation
										JOINT RightHandPinky2
										{
											OFFSET -4.52789 0.00000 0.00000
											CHANNELS 3 Zrotation Xrotation Yrotation
											JOINT RightHandPinky3
											{
												OFFSET -2.46976 0.00000 0.00000
												CHANNELS 3 Zrotation Xrotation Yrotation
												End site
												{
													OFFSET 0.00000 0.00000 0.00000
												}
											}
										}
									}
								}
							}
						}
					}
					JOINT LeftShoulder
					{
						OFFSET 0.01000 7.91373 5.19711
						CHANNELS 3 Zrotation Xrotation Yrotation
						JOINT LeftArm
						{
							OFFSET 18.41580 0.00000 0.00000
							CHANNELS 3 Zrotation Xrotation Yrotation
							JOINT LeftForeArm
							{
								OFFSET 29.11090 0.00000 0.00000
								CHANNELS 3 Zrotation Xrotation Yrotation
								JOINT LeftHand
								{
									OFFSET 24.65040 0.00000 0.00000
									CHANNELS 3 Zrotation Xrotation Yrotation
									JOINT LeftHandThumb1
									{
										OFFSET 5.35114 -0.85590 3.97906
										CHANNELS 3 Zrotation Xrotation Yrotation
										JOINT LeftHandThumb2
										{
											OFFSET 4.52789 0.00000 0.00000
											CHANNELS 3 Zrotation Xrotation Yrotation
											JOINT LeftHandThumb3
											{
												OFFSET 2.46977 0.00000 0.00000
												CHANNELS 3 Zrotation Xrotation Yrotation
												End site
												{
													OFFSET 0.00000 0.00000 0.00000
												}
											}
										}
									}
									JOINT LeftHandIndex1
									{
										OFFSET 14.26970 0.00000 2.88139
										CHANNELS 3 Zrotation Xrotation Yrotation
										JOINT LeftHandIndex2
										{
											OFFSET 5.48836 0.00000 0.00000
											CHANNELS 3 Zrotation Xrotation Yrotation
											JOINT LeftHandIndex3
											{
												OFFSET 3.01859 0.00000 0.00000
												CHANNELS 3 Zrotation Xrotation Yrotation
												End site
												{
													OFFSET 0.00000 0.00000 0.00000
												}
											}
										}
									}
									JOINT LeftHandMiddle1
									{
										OFFSET 14.26970 0.00000 -0.09147
										CHANNELS 3 Zrotation Xrotation Yrotation
										JOINT LeftHandMiddle2
										{
											OFFSET 6.17440 0.00000 0.00000
											CHANNELS 3 Zrotation Xrotation Yrotation
											JOINT LeftHandMiddle3
											{
												OFFSET 3.56744 0.00000 0.00000
												CHANNELS 3 Zrotation Xrotation Yrotation
												End site
												{
													OFFSET 0.00000 0.00000 0.00000
												}
											}
										}
									}
									JOINT LeftHandRing1
									{
										OFFSET 12.69180 0.00000 -3.06433
										CHANNELS 3 Zrotation Xrotation Yrotation
										JOINT LeftHandRing2
										{
											OFFSET 5.62556 0.00000 0.00000
											CHANNELS 3 Zrotation Xrotation Yrotation
											JOINT LeftHandRing3
											{
												OFFSET 3.56744 0.00000 0.00000
												CHANNELS 3 Zrotation Xrotation Yrotation
												End site
												{
													OFFSET 0.00000 0.00000 0.00000
												}
											}
										}
									}
									JOINT LeftHandPinky1
									{
										OFFSET 11.11390 0.00000 -6.03719
										CHANNELS 3 Zrotation Xrotation Yrotation
										JOINT LeftHandPinky2
										{
											OFFSET 4.52789 0.00000 0.00000
											CHANNELS 3 Zrotation Xrotation Yrotation
											JOINT LeftHandPinky3
											{
												OFFSET 2.46976 0.00000 0.00000
												CHANNELS 3 Zrotation Xrotation Yrotation
												End site
												{
													OFFSET 0.00000 0.00000 0.00000
												}
											}
										}
									}
								}
							}
						}
					}
					JOINT pCube4
					{
						OFFSET 0.00000 10.91090 1.10792
						CHANNELS 3 Zrotation Xrotation Yrotation
						End site
						{
							OFFSET 0.00000 0.00000 0.00000
						}
					}
				}
			}
		}
	}
	JOINT RightUpLeg
	{
		OFFSET -9.98441 0.00000 0.00000
		CHANNELS 3 Zrotation Xrotation Yrotation
		JOINT RightLeg
		{
			OFFSET 0.00000 -42.11790 0.00000
			CHANNELS 3 Zrotation Xrotation Yrotation
			JOINT RightFoot
			{
				OFFSET 0.00000 -45.00020 -0.00001
				CHANNELS 3 Zrotation Xrotation Yrotation
				JOINT RightForeFoot
				{
					OFFSET 0.00000 -3.74820 0.00000
					CHANNELS 3 Zrotation Xrotation Yrotation
					JOINT RightToeBase
					{
						OFFSET 0.00000 0.06325 14.43120
						CHANNELS 3 Zrotation Xrotation Yrotation
						End site
						{
							OFFSET 0.00000 0.00000 0.00000
						}
					}
				}
			}
		}
	}
	JOINT LeftUpLeg
	{
		OFFSET 9.98441 0.00000 0.00000
		CHANNELS 3 Zrotation Xrotation Yrotation
		JOINT LeftLeg
		{
			OFFSET 0.00000 -42.11800 0.00000
			CHANNELS 3 Zrotation Xrotation Yrotation
			JOINT LeftFoot
			{
				OFFSET 0.00000 -45.00070 0.00000
				CHANNELS 3 Zrotation Xrotation Yrotation
				JOINT LeftForeFoot
				{
					OFFSET 0.00000 -3.74824 0.00000
					CHANNELS 3 Zrotation Xrotation Yrotation
					JOINT LeftToeBase
					{
						OFFSET 0.00000 0.06325 14.43110
						CHANNELS 3 Zrotation Xrotation Yrotation
						End site
						{
							OFFSET 0.00000 0.00000 0.00000
						}
					}
				}
			}
		}
	}
}
MOTION
Frames: 4
Frame Time: 0.050000
0.017726673735584623 0.03928507833645578 -0.0017766276723853857 -0.03706012884856288 -0.045535507488309535 -0.031215652703251513 -1.3684642426894391 0.7879556884648524 -1.2312186953128006 -0.1820569410041414 3.76330146933803 0.29669080237038326 -0.5949725371515541 -1.8671115651090044 0.5978777379745416 -1.0945896322574507 -1.234675455764662 -0.38507403185583866 -0.46159598122453627 12.163651049147878 -0.5584304850607995 0.6073754144346636 -1.4754753290203324 -1.7596861908773083 0.9079057271047952 -17.234116658903183 -0.26406343822036876 0.09306425099762497 0.6785918190476097 -14.742386310091495 73.98397174705644 7.7780921405506165 3.9553012695482006 28.30913399320096 16.18108138885803 101.92515736907846 27.662019259989766 -0.2083139865355254 -5.181952098237462 4.5561715891703125 -0.1515600480374293 -1.6044655100923477 0.013951336147175272 0.007178569653934057 -56.239815586947074 0.0022610572541188335 -0.029754922332922647 -56.263687899862454 -38.81940220295111 0.042326655761782954 -0.022105632576654786 -0.029402523743385426 0.046280495069028565 -0.01418473536777914 -0.0350709508313087 0.005334639083303483 0.011319101918687994 -36.696562048130524 -0.042253319470204165 -0.01762127500028381 -0.019408114865867705 -0.018954461959646528 0.0014280013533650264 0.012988720457525086 -0.002352147187172291 -0.015393414486104524 -19.761888956058627 0.04532414680761914 -0.03430742597478665 -0.006111372122888612 -0.037185887755377844 -0.029870282001763993 0.01895709541805597 0.01980739088380638 0.04087017443434124 24.045687177030192 -0.007070770888551285 0.03769959049313178 28.843704273536567 -0.01937398782675418 0.021775856228824917 28.84145142861862 -1.2744483248270449e-05 0.03936622836611752 4.366017395089461 1.4326922832372027 13.862037602423953 -79.332281414948 13.729256916849172 -10.169815926102304 -62.22487012848591 23.20504554867446 -108.7712766149208 -29.62242335248829 3.6743961250086197 -1.472161473190848 -0.4840770322098865 0.07605161624512984 -8.076259598398712 0.04424666762350104 -0.024075697858621965 44.572493607974835 0.0155910382491535 0.024208283727837367 44.58630376408526 12.459804351109128 -0.00010295423749404037 0.03418041380009216 -0.020338268840179922 0.026517378195276175 0.04039793347245902 0.0428033814380724 0.029858586532167317 0.0373333132681659 11.079932523811776 -0.01777130557819555 0.007633920910683158 0.02716414620799635 0.014248673546173669 0.046270136679056655 -0.04809217782842992 -0.027686912276425137 0.015618402951836976 4.781041483654237 0.03305573980144805 -0.01691320821037836 0.034963247949979764 -0.01697016365544032 0.029769304721844296 -0.043889654693064564 -0.004250718607965094 -0.04999520583049903 -5.585412541791807 0.004119194673049432 -0.04606614220155619 -6.6933918550017975 0.015137783448387582 -0.014654446907462593 -6.765868865305427 0.01750498499084399 -0.0213729134354333 -0.033208627457069706 0.039963824101369894 0.04666743699716161 8.077941432089748 3.5272700645326687 -19.218570059136113 -0.04423804440395218 10.3990386680363 -0.006765712821721774 -5.626417429963048 -15.678692882014253 3.1721711804478554 0.004728617395376118 -0.0029707678193317357 -0.027395833348577654 0.026543231941246723 4.670841141083987 -0.041990213702950585 12.486741765170171 -8.197538681208586 6.906533016122011 -0.010874465778509054 46.347538190827954 0.027292373947625046 -4.300903052462346 -14.709232935424684 -3.870882569665508 -0.010787797175397944 0.018509469713046785 -0.021060729237043878 -0.021949829677937495 -10.747948719390845 0.04147547215459858 
-0.0207538665888207 0.018434543118752304 0.0031295581378584674 0.04761355114307599 -0.048657641436384534 -0.028024460672902346 -1.4442482687171136 0.9978626054822904 -1.2308647319235364 -0.16938641959093464 3.816514965444798 0.21711256188061145 -0.6097188349965985 -1.816516460764281 0.6078344046222809 -1.1373810774912463 -1.1773482115410145 -0.4224192782690919 -0.5137335801089801 12.005056266371911 -0.3406513107886313 0.5740710603128204 -1.4423941783135197 -1.4550905035512787 0.9072687005928061 -17.23800495272254 -0.14746044123281268 0.2508889357717129 0.6389581164047538 -14.607696206175317 73.8063151279002 8.186208151506005 3.7528320707365768 25.682152439697155 16.355321587142832 100.26789633403888 27.765333221800514 -0.29334599101292125 -4.926859332649468 4.4927324837891485 -0.0840353076877978 -1.5933740607440046 0.013359939418433013 0.04478279831463065 -56.20052794191397 -0.010440447449183066 -0.014852386398234496 -56.20076959555937 -38.745373981336236 -0.043638825208503526 0.013839924250374794 0.014933430909097737 0.02043696923152568 -0.006689612861868956 0.020174366957243766 0.044739787944931754 -0.02496110808714313 -36.683950376442006 -0.02962983787007338 -0.018351354240355704 -0.04774536217885829 0.0013090340131456783 -0.006464430129606614 -0.042899258558876135 0.03615518605317356 0.001079875869071796 -19.770307140748134 0.007007081600703348 0.03448607240398736 -0.01742802848988167 0.04163699019806356 -0.014222842161508898 -0.0025133249403731938 -0.004544801327516064 -0.0005689758254064447 24.034931290651247 0.02851349305712519 0.005711774101957504 28.853715485713707 -0.03839831763346454 0.04324498949187132 28.88634647718427 -0.010970218583762329 -0.02566878100060042 4.202049670706595 1.4045195275305484 13.761689090317544 -78.80458644271472 14.55021406029841 -10.13586497153247 -57.990243197506636 22.806655402901136 -106.07865672038876 -30.290909480132388 2.9669526232090764 -0.9174157387883395 -0.4399758457627659 0.029332914127681395 -8.115128165423245 0.0028769620632932372 0.01690339498179176 44.58720724078549 0.03990690336807157 -0.005185699508886608 44.57992297105881 12.454895105915494 -0.031402996302542355 -0.03627812881610765 -0.038915219354476546 -0.0076964099921069075 -0.01246281983118836 0.013892641921014514 -0.03085878404831153 0.03768087412328031 11.100070414063792 -0.011732561416905369 -0.017019218182376995 0.027614307058883632 -0.021739211266396805 -0.03111018250771584 -0.04268877472532685 0.0013862991404376638 -0.023059114966733407 4.734505792287485 -0.021464932646303565 0.009113489859012445 -0.04447194707766052 -0.040565758973988356 0.0036921903575409015 -0.0012353080269985296 0.041619848960343014 0.0006374362403244536 -5.640037622043493 0.03440004454140217 0.024769747049763965 -6.751862957843964 -0.0060048454184062836 0.027137560687127686 -6.70527145725222 -0.02762872513694754 -0.02469547562347666 -0.021794377944503576 -0.006587477041419738 -0.0020106842836250982 8.020967772726088 3.491380057835221 -19.233834006541038 -0.0003550980790858383 10.406700852444105 -0.023949488729102724 -5.608235110490215 -15.678439364017219 3.1503278823264154 -0.017319192116802985 0.04646430591543612 0.009149226235347805 -0.005155652749707857 4.704912759277468 0.0024300699076133486 12.495412800918018 -8.264069737803736 6.876423047691265 0.004745713501747816 46.4081930812745 0.004957234406505074 -4.356403116425989 -14.75668342638948 -3.8069624160380617 0.0010462361214656165 0.0362602848297122 -0.04139688091578023 0.0290289202961202 -10.759979738902679 -0.03737350946902231 
0.016718511089851562 -0.013560716918737429 -0.03333564107588313 -0.026038871776641315 -0.030139448501605576 -0.048452673661822376 -1.132077426252004 1.2436195668624326 -1.2302717953723319 -0.23410183203234317 3.7487265782492623 0.2289350528575361 -0.5872448669184555 -1.8042503278644169 0.5664253269539742 -1.1315688606591947 -1.2039482633647753 -0.3829860319208278 -0.4605749981786358 11.870252523343586 -0.2592989059139035 0.5929830410304363 -1.4338695435384345 -1.157421064236462 0.8520732730817419 -17.26032516977542 -0.1474230848561456 0.1608904319487414 0.6863351753167396 -14.649080027947155 73.94763667274853 9.331600248453487 3.1331798245179425 22.85960360292865 16.331881485341192 97.3258953800524 27.736748994173716 -0.31032988089378094 -4.924305646025994 4.564116527470454 -0.16064129569008373 -1.6044306089885674 0.01042229871827309 -0.013310543620510587 -56.23543130038086 0.028287994901413163 0.017707305731754917 -56.200263885881824 -38.756919150486254 0.008839649909476624 -0.04496898420388335 0.01093876609807822 0.049589007109782396 0.021660494659615233 -0.009718111984884705 -0.04399450621619797 -0.005082992369722679 -36.73061299602034 0.04666238234147937 0.0392150345936719 -0.023903297995868596 0.017352096236924765 -0.03388094694973839 -0.04632744628073466 -0.025638981493768576 -0.02495786183140684 -19.708865796699122 0.01073318818710746 -0.04935180653551636 -0.016104369270080292 -0.025534837496277288 0.03973659197112896 0.02984234430195179 0.02450687677809005 0.04282692388640004 24.017429652255785 -0.043563853165299454 -0.03243923308704378 28.883870849956818 0.005384462606972062 0.02830633165181124 28.823005765592463 -0.03148591516832742 -0.012273062576049194 4.314581339570774 1.4054574716735038 13.792520507240335 -78.13874921329864 15.95020605297239 -10.073216375506343 -53.6435141094607 21.90742423524513 -102.70486808720469 -30.923181928968557 1.2374511664833345 0.3904112783099061 -0.4716973727552065 0.032927986482624315 -8.16369500964579 -0.03974039827794053 0.03417759574660124 44.54952461404908 0.0034130020509782867 -0.03594379661166736 44.61198835037769 12.489676932549806 -0.033776754122310716 0.022852101932281613 0.03471351850846301 -0.00873507996273517 0.04403832646672804 0.0010607994038378935 -0.012130702254030337 0.03102597127780055 11.06392499486186 0.0012481005472294163 -0.01671676272660035 0.007214335954059497 0.0353946105829833 0.01046774290677989 -0.004182108295245489 0.03053509497956079 -0.002655814411285107 4.781795067416915 -0.032049158692567074 -0.005292359222693207 0.04647122031174317 0.01540127483799477 0.04265527251023344 0.020235226971852427 -0.013991546655036501 0.012345335394080538 -5.632227995336814 -0.012657587246340309 0.0327957085482451 -6.6836854707661715 0.04441455618975049 0.0021312851494533673 -6.711120407970038 -0.032807863602399276 -0.008733064014679638 -0.0015267847566689595 -0.009111177744624168 -0.04447212382686937 8.026967421586914 3.493887133953424 -19.2136856066264 0.007273619523363949 10.373381471523825 -0.03364801405983127 -5.592735304329096 -15.65087856951138 3.1727780794230096 -0.006059265669262867 -0.03409415287760746 0.01839484680240858 -0.0374656058853194 4.698177824138077 0.0011510426939193815 12.458317677883828 -8.271603837285861 6.86805262161258 0.004372479368244271 46.37526439522108 0.04458869763573521 -4.344469325192141 -14.763390109070773 -3.8505353792553167 0.011068542873916638 -0.0073256679667346395 0.039297502674647385 -0.01733182111480385 -10.752695784923564 0.0008573608887373723 
-0.038452456309300505 0.0033027349728504186 0.025846237793717537 -0.004772545364595052 0.03445418794108604 0.024734260945160645 -0.5513394530234489 1.4282435774167328 -1.3253540276009153 -0.2543226137662296 3.742792760581273 0.32479190582577444 -0.5305357574148649 -1.7060655162408043 0.5266583180361487 -1.0449261398125564 -1.0659222200647778 -0.4178612106694481 -0.48800882170756443 11.789059697974446 -0.1657653790795075 0.5478930108553474 -1.3187545571169166 -0.8931553020328631 0.7724031800579041 -17.1738612181723 -0.10653759707377977 -0.47701740286407784 0.9477854509355542 -14.760819280364275 74.4831781237518 10.56359113703867 2.1943038172173126 20.739163771501993 15.74819813583453 94.43191879058196 26.98077619328677 -0.31383622917541126 -5.075762562184345 4.542754571454649 -0.16311483709986313 -1.6040670643512047 0.026635704927735742 0.007840650937464576 -56.18460549340476 0.029002869183370607 0.04799610268967192 -56.20763600221909 -38.74341072727809 0.01030432235397985 -0.028371299350839273 0.0054466348252051175 0.025637061157984874 -0.049677603326140726 -0.0037105723324139662 0.023967650109885528 0.01742377786690813 -36.700530091782746 0.044063945469277624 0.02149653688452918 -0.0001593853365709236 0.0023529543765328036 0.004202520724772164 -0.02597196455263259 0.0009012602793110129 0.02136432568153733 -19.773777950663554 0.006632005226760534 -0.0015338362014413963 4.5515805342645585e-05 0.0338510276275156 0.02125561960839972 -0.0008833101485433613 0.03878659162418913 0.02479482348026896 24.076285200091835 -0.02315955112779242 -0.0028597101575668707 28.90758040279709 -0.0042590900574064495 0.020961251006551225 28.899180403297276 0.0464033505467915 -0.04179792927191105 4.776592094488312 1.5211155798154865 13.799516275453358 -77.47656262063478 17.87332084078911 -10.331646688594871 -49.95878663359469 20.288378823097034 -99.92537757390892 -30.900146361602726 -1.2180647106407705 2.4728975337609618 -0.49639489281317395 0.07118899387702164 -8.130043598118485 -0.025011098201296607 0.04267832968421793 44.520345760924705 0.020802258411165415 -0.021958295323384187 44.61654232721254 12.457580490812955 0.0118436799654499 -0.02332594278490813 0.01620982853762454 -0.009836316205654285 -0.03555226645007236 0.010593376792586495 -0.02235962679203491 -0.04197538453412485 11.07983648053688 0.03146826046637435 -0.021172840934157975 0.009233474559464468 0.034575646988800474 -0.009438102385925611 -0.026266317333018686 0.009730541190275681 0.00102706195802205 4.745685751316401 0.030747791030949996 -0.025357716064810566 0.021887725493753174 -0.0326830801414559 0.03257972960261105 -0.023494588826461178 -0.026572057237445223 -0.0373204928813696 -5.615254974462525 -0.038922077688854216 0.045688853993441 -6.735931898900366 0.03143831850294437 -0.013317186496550512 -6.697044166991085 -0.034487797716086385 0.020837981433131078 0.00013702277488154867 -0.02294472570532151 -0.04508491722583381 8.074269322178678 3.5243687057343567 -19.22574120652382 0.011064816445890182 10.43328409306287 0.06254882790780521 -5.603433070537635 -15.649815133495112 3.1992029088953684 0.03890777234143491 -0.010870435974172882 -0.04567127780253702 -0.014152011577711067 4.690591759806044 -0.03191093862372375 12.442495966214292 -8.239030461285362 6.91335274323474 0.04068812708554178 46.36784360388744 0.00029707063527941715 -4.368384885185256 -14.741000406364916 -3.8213727546563856 0.01966573531002185 -0.03089573861037371 0.02073072410300483 -0.04841434203547472 -10.786512047872286 -0.02813490627213726 
